<svg xmlns="http://www.w3.org/2000/svg" xmlns:xlink="http://www.w3.org/1999/xlink" viewBox="0 0 211.61 292.55"><defs><style>.cls-1{isolation:isolate;}.cls-2{fill:#b5c8ff;}.cls-3{fill:#fff;}.cls-4,.cls-5{mix-blend-mode:screen;}.cls-4{fill:url(#linear-gradient);}.cls-5{fill:url(#linear-gradient-2);}.cls-6{fill:#94b3ff;}</style><linearGradient id="linear-gradient" x1="115.79" y1="58.34" x2="148.34" y2="58.34" gradientUnits="userSpaceOnUse"><stop offset="0" stop-color="#414042"/><stop offset="1" stop-color="#231f20"/></linearGradient><linearGradient id="linear-gradient-2" x1="63.27" y1="234.21" x2="96.79" y2="234.21" xlink:href="#linear-gradient"/></defs><g class="cls-1"><g id="Layer_1" data-name="Layer 1"><polygon class="cls-2" points="211.61 116.67 114.61 231.68 106.63 241.15 63.27 292.55 75.93 241.66 92.31 175.87 0 175.87 97 60.86 148.34 0.01 119.3 116.67 211.61 116.67"/><path class="cls-3" d="M265.94,125.57,173.55,235.1l-4.61,5.48,6.45-26a24,24,0,0,0-23.32-29.85H54.32l97-115-6.47,26a24,24,0,0,0,23.33,29.85Z" transform="translate(-54.32 -8.89)"/><polygon class="cls-4" points="148.34 0 115.79 116.68 119.3 116.68 148.34 0"/><polygon class="cls-5" points="63.27 292.55 96.79 175.87 92.31 175.87 63.27 292.55"/><path class="cls-6" d="M179.91,218.39l-6.36,16.71-4.61,5.48,6.45-26a24,24,0,0,0-23.32-29.85H54.32l99.86-2.64A26.77,26.77,0,0,1,179.91,218.39Z" transform="translate(-54.32 -8.89)"/><path class="cls-6" d="M140.34,91.94l6.37-16.71,4.61-5.47-6.46,26a24,24,0,0,0,23.33,29.84h97.74l-99.85,2.65A26.78,26.78,0,0,1,140.34,91.94Z" transform="translate(-54.32 -8.89)"/></g></g></svg>