<svg width="203" height="198" viewBox="0 0 203 198" fill="none" xmlns="http://www.w3.org/2000/svg">
<g clip-path="url(#clip0)">
<path d="M149.618 140.706L115.355 156.49L142.345 173.898L159.015 159.215L171.394 155.325L178.012 143.102L149.618 140.706Z" fill="#778FB0"/>
<path d="M78.694 177.474L0 138.389V36.0741L78.694 75.1592V177.474Z" fill="#53677A"/>
<path d="M78.694 75.152L0 36.0741L73.322 0L152.016 39.0779L78.694 75.152Z" fill="#839DC2"/>
<path d="M152.016 141.393L78.6938 177.474V75.0518L152.016 38.9706V141.393Z" fill="#778FB0"/>
<path d="M147.45 138.632L83.2593 170.515V127.833L147.45 95.9497V138.632Z" fill="#737B7D"/>
<path d="M199.306 164.164L147.451 138.411L146.392 104.625V103.409L199.306 129.692V164.164Z" fill="#E4F4F7"/>
<path d="M198.24 164.851L146.392 139.104V104.625L198.24 130.379V164.851Z" fill="#B5C2C4"/>
<path d="M136.173 195.733L84.3178 169.979L83.2593 136.193V134.978L136.173 161.261V195.733Z" fill="#E4F4F7"/>
<path d="M135.115 196.419L83.2593 170.665V136.193L135.115 161.947V196.419Z" fill="#B5C2C4"/>
<path d="M200.019 163.113L136.174 198L133.192 196.262V153.58L200.019 120.438V163.113Z" fill="#415261"/>
<path d="M203 164.851L136.174 198V167.998L134.683 162.906L136.174 155.325L203 122.176L200.876 130.121L203 134.863V164.851Z" fill="#394754"/>
<path d="M203 134.863L136.174 167.998L134.683 162.906L200.876 130.121L203 134.863Z" fill="#7F98BC"/>
<path d="M203 122.176V128.047L136.173 160.717V155.325L203 122.176Z" fill="#566B7F"/>
<path d="M136.174 155.325V160.717L133.192 159.237V153.58L136.174 155.325Z" fill="#415261"/>
<path d="M133.192 153.58L136.174 155.325L203 122.176L200.019 120.438L133.192 153.58Z" fill="#7F98BC"/>
<path d="M136.173 167.998L203 134.863V164.851L136.173 198V167.998Z" fill="#566B7F"/>
<path d="M139.572 179.334V170.308L153.211 163.528V172.561L139.572 179.334Z" fill="#A3C0C9"/>
<path d="M152.506 172.203L140.278 178.275V170.658L152.506 164.586V172.203Z" fill="white"/>
<path d="M147.45 90.1209L83.2593 122.004V79.3216L147.45 47.4385V90.1209Z" fill="#35434F"/>
<path d="M147.45 90.1209L82.1864 122.605V92.6026L80.6958 87.5104L82.1864 79.9223L147.45 47.4456L145.333 55.3913L147.45 60.133V90.1209Z" fill="#566B7F"/>
<path d="M147.45 60.1331L82.1864 92.6026L80.6958 87.5105L145.333 55.3914L147.45 60.1331Z" fill="#7F98BC"/>
<path d="M147.45 47.4456V53.3173L82.1865 85.322V79.9223L147.45 47.4456Z" fill="#566B7F"/>
<path d="M83.2595 75.7456V122.483L80.8615 123.835L79.6157 76.9471L83.2595 75.7456Z" fill="#778FB0"/>
<path d="M83.2593 86.2302L145.333 55.3913L145.65 54.2041L83.2593 84.7999V86.2302Z" fill="#415261"/>
<path d="M85.2471 102.88V93.8542L98.8932 87.0742V96.1071L85.2471 102.88Z" fill="#A3C0C9"/>
<path d="M98.1803 95.7566L85.96 101.829V94.2046L98.1803 88.1327V95.7566Z" fill="white"/>
<path d="M83.2593 79.6291V79.014L147.45 47.1381V47.7531L83.2593 79.6291Z" fill="#415261"/>
</g>
<defs>
<clipPath id="clip0">
<rect width="203" height="198" fill="white"/>
</clipPath>
</defs>
</svg>
